<?xml version="1.0" encoding="utf-8"?>
<!-- Generator: Adobe Illustrator 26.0.1, SVG Export Plug-In . SVG Version: 6.00 Build 0)  -->
<svg version="1.1" id="Layer_1" xmlns="http://www.w3.org/2000/svg" xmlns:xlink="http://www.w3.org/1999/xlink" x="0px" y="0px"
	 viewBox="0 0 1000 291" style="enable-background:new 0 0 1000 291;" xml:space="preserve">
<style type="text/css">
	.st0{fill:#50B849;}
	.st1{fill:none;}
	.st2{font-family:'Montserrat-Regular';}
	.st3{font-size:24px;}
</style>
<g>
	<g>
		<polygon class="st0" points="101.88,31.13 101.88,215.37 72.88,215.37 72.88,58.48 30.35,58.48 30.35,31.13 		"/>
		<line class="st0" x1="830.82" y1="72.25" x2="830.82" y2="46.13"/>
		<line class="st0" x1="856.93" y1="72.25" x2="856.93" y2="46.13"/>
		<polygon points="965.31,112.19 915.94,173.66 967.06,173.66 967.06,199.78 876.94,199.78 876.94,180.15 882.15,173.66 
			931.52,112.19 881.65,112.19 881.65,86.07 969.65,86.07 969.65,106.79 		"/>
		<rect x="830.82" y="46.13" class="st0" width="26.12" height="26.12"/>
		<rect x="117.94" y="31.13" class="st0" width="27.35" height="27.35"/>
		<path class="st1" d="M590.07,131.01"/>
		<polygon points="812.69,86.07 774.89,199.59 774.83,199.78 748.96,199.78 748.9,199.59 724.69,126.89 700.97,198.13 
			700.42,199.78 675.52,199.78 674.97,198.13 637.66,86.07 663.65,86.07 687.97,159.09 711.69,87.84 712.27,86.07 737.09,86.07 
			737.69,87.85 761.9,160.55 786.7,86.07 		"/>
		<line class="st1" x1="738.28" y1="86.07" x2="737.09" y2="86.07"/>
		<line class="st1" x1="712.27" y1="86.07" x2="711.1" y2="86.07"/>
		<line class="st1" x1="774.96" y1="199.78" x2="774.83" y2="199.78"/>
		<line class="st1" x1="701.52" y1="199.78" x2="700.42" y2="199.78"/>
		<line class="st1" x1="748.96" y1="199.78" x2="748.83" y2="199.78"/>
		<line class="st1" x1="675.52" y1="199.78" x2="674.42" y2="199.78"/>
		<line class="st1" x1="701.52" y1="199.78" x2="700.97" y2="198.13"/>
		<line class="st1" x1="711.69" y1="87.84" x2="711.1" y2="86.07"/>
		<line class="st1" x1="774.96" y1="199.78" x2="774.89" y2="199.59"/>
		<line class="st1" x1="738.28" y1="86.07" x2="737.69" y2="87.85"/>
		<line class="st1" x1="674.97" y1="198.13" x2="674.42" y2="199.78"/>
		<line class="st1" x1="748.9" y1="199.59" x2="748.83" y2="199.78"/>
		<path d="M349.88,86.72v113.65h-26.17v-56.64c0-17.4-14.1-31.5-31.5-31.5c-17.39,0-31.49,14.1-31.49,31.5
			c0,17.39,14.1,31.49,31.49,31.49c4.34,0,8.48-0.88,12.24-2.47l9.13,22.85c-6.71,2.88-14.1,4.47-21.85,4.47
			c-30.91,0-55.97-25.31-55.97-56.53c0-31.22,25.06-56.53,55.97-56.53c11.89,0,22.92,3.75,31.98,10.14V86.72H349.88z"/>
		<path d="M483.53,46.13v154.24h-26.18v-54.75c0.06-0.8,0.09-1.61,0.09-2.42c0-0.82-0.03-1.62-0.09-2.42
			c-1.24-16.27-14.83-29.08-31.4-29.08c-17.39,0-31.49,14.1-31.49,31.5c0,17.39,14.1,31.49,31.49,31.49c4.34,0,8.47-0.88,12.23-2.46
			l9.13,22.85c-6.71,2.87-14.09,4.46-21.84,4.46c-30.91,0-55.97-25.31-55.97-56.53c0-31.22,25.06-56.53,55.97-56.53
			c11.85,0,22.84,3.72,31.88,10.07V46.13H483.53z"/>
		<path d="M617.23,143.52c0-31.4-25.2-56.85-56.29-56.85c-31.08,0-56.28,25.45-56.28,56.85c0,31.39,25.2,56.85,56.28,56.85
			c16.88,0,32.01-7.5,42.32-19.38l-26.42-10.32c-4.63,2.67-10,4.2-15.73,4.2c-12.88,0-23.96-7.73-28.84-18.8h83.58
			C616.75,152.03,617.23,147.83,617.23,143.52z M532.13,131.01c4.81-11.24,15.97-19.12,28.98-19.12c13,0,24.16,7.88,28.96,19.12
			H532.13z"/>
		<path d="M216.06,111.84"/>
		<path d="M216.59,86.74v23.95c-16.9,1.46-30.77,15.3-30.77,29.2v60.48h-26.18V86.72h26.18v12.72
			C192.56,91.51,204.34,86.18,216.59,86.74z"/>
		<polyline points="856.93,86.07 856.93,199.78 830.82,199.78 830.82,86.07 		"/>
	</g>
	<text transform="matrix(1 0 0 1 113.7605 253.5794)" class="st2 st3">EMPOWERING AUTOMATION, ELEVATING RISK MANAGEMENT</text>
</g>
</svg>
